<svg style="height: 64px; width: 64px;" xmlns="http://www.w3.org/2000/svg" viewBox="0 0 512 512"><circle cx="256" cy="256" r="246" fill="#000" fill-opacity="1" stroke="#fff" stroke-opacity="1" stroke-width="10"></circle><g class="" style="" transform="translate(0,0)"><path d="M247 28v80h18V28zm35 0v64l80-32zm-26 96c-48 48-144 112-192 128 0 64-16 208-32 240h160c16-16 64-144 64-192 0 48 48 176 64 192h160c-16-32-32-176-32-240-48-16-144-80-192-128zM112 300h80v80h-80z" fill="#fff" fill-opacity="1" transform="translate(76.8, 76.8) scale(0.7, 0.7) rotate(0, 256, 256) skewX(0) skewY(0)"></path></g></svg>